# xmcd
#
# Track frame offsets:
#	150
#	22800
#	39277
#	49180
#	63895
#	73462
#	86102
#	105450
#	117290
#	133067
#	146747
#	158655
#	170120
#	183350
#
# Disc length: 2598
#
# Revision: 2
# Processed by: cddbd v1.5.1PL0 Copyright (c) Steve Scherf et al.
# Submitted via: DiscPlay 4.0.3
# Normalized: r1:TDELIM( - )
#
DISCID=c30a240e
DTITLE=Various Artist - Blues All Ways
DYEAR=1900
DGENRE=
TTITLE0=Big Bill Broonzy - Ridin' On Down (Mule Ridin')
TTITLE1=Mississippi Fred McDowell - Get Right Church
TTITLE2=Leadbelly with Sonny Terry - How Long
TTITLE3=Bessie Smith - Mean Ole Bed Bug Blues
TTITLE4=Lowell Fulson - Everyday I Have The Blues
TTITLE5=John Lee Hooker - Crawlin' King Snake
TTITLE6=Howlin' Wolf - Howlin' For My Darlin'
TTITLE7=Memphis Slim - I'm So Alone
TTITLE8=Lightnin' Hopkins - Prison Blues Come Down On Me
TTITLE9=Charles Brown - In The Clay
TTITLE10=Big Joe Williams - Old Saw Mills Blues
TTITLE11=Linda Hayes - Take Me Back
TTITLE12=Jimmy McCracklin - It's Alright
TTITLE13=Ray Chales - Guitar Blues
EXTD=
EXTT0=
EXTT1=
EXTT2=
EXTT3=
EXTT4=
EXTT5=
EXTT6=
EXTT7=
EXTT8=
EXTT9=
EXTT10=
EXTT11=
EXTT12=
EXTT13=
PLAYORDER=
